<svg width="83" height="83" viewBox="0 0 83 83" fill="none" xmlns="http://www.w3.org/2000/svg">
<path d="M66.5325 34.918C66.2347 36.1197 66.9675 37.3353 68.1692 37.6331C69.3712 37.931 70.5866 37.1982 70.8844 35.9964L66.5325 34.918ZM22.3845 67.6222C23.5862 67.9201 24.8018 67.1872 25.0997 65.9855C25.3975 64.7838 24.6647 63.5682 23.463 63.2704L22.3845 67.6222ZM70.8844 35.9964L72.6893 28.7135L68.3374 27.6351L66.5325 34.918L70.8844 35.9964ZM72.0983 24.7656L65.4489 13.6742L61.6035 15.9797L68.253 27.0711L72.0983 24.7656ZM62.2209 11.2867L23.2047 1.61774L22.1262 5.96962L61.1424 15.6386L62.2209 11.2867ZM15.0592 6.52781L2.83628 55.8491L7.18814 56.9276L19.411 7.60632L15.0592 6.52781ZM7.74636 63.9946L22.3845 67.6222L23.463 63.2704L8.82484 59.6428L7.74636 63.9946ZM2.83628 55.8491C1.94286 59.4542 4.14115 63.1012 7.74636 63.9946L8.82484 59.6428C7.62311 59.3449 6.89034 58.1293 7.18814 56.9276L2.83628 55.8491ZM23.2047 1.61774C19.5995 0.724304 15.9526 2.92263 15.0592 6.52781L19.411 7.60632C19.7088 6.40459 20.9245 5.67181 22.1262 5.96962L23.2047 1.61774ZM65.4489 13.6742C64.7331 12.4806 63.5714 11.6214 62.2209 11.2867L61.1424 15.6386C61.3353 15.6864 61.5011 15.8091 61.6035 15.9797L65.4489 13.6742ZM72.6893 28.7135C73.0219 27.3712 72.8095 25.9518 72.0983 24.7656L68.253 27.0711C68.3548 27.2406 68.3849 27.4433 68.3374 27.6351L72.6893 28.7135Z" fill="#7C4FE0"/>
<path d="M26.3232 20.0977L57.0045 27.7011L26.3232 20.0977Z" fill="#7C4FE0"/>
<path d="M26.3232 20.0977L57.0045 27.7011" stroke="#7C4FE0" stroke-width="1.25" stroke-linecap="round"/>
<path d="M22.7288 34.6035L37.9238 38.3691L22.7288 34.6035Z" fill="#7C4FE0"/>
<path d="M22.7288 34.6035L37.9238 38.3691" stroke="#7C4FE0" stroke-width="1.25" stroke-linecap="round"/>
<path d="M19.1338 49.1094L25.646 50.7232L19.1338 49.1094Z" fill="#7C4FE0"/>
<path d="M19.1338 49.1094L25.646 50.7232" stroke="#7C4FE0" stroke-width="1.25" stroke-linecap="round"/>
<path d="M50.3664 78.4053C59.1791 80.5893 68.0937 75.2156 70.2777 66.4028C72.4617 57.5901 67.088 48.6755 58.2752 46.4915C49.4625 44.3076 40.5479 49.6813 38.3639 58.494C36.18 67.3067 41.5536 76.2213 50.3664 78.4053Z" fill="#7C4FE0" stroke="#71717A" stroke-width="1.5"/>
<path d="M48.159 62.4607L50.5215 66.38C50.9983 67.171 52.0713 67.3445 52.7731 66.7443L61.2019 59.5341" fill="#7C4FE0"/>
<path d="M48.159 62.4607L50.5215 66.38C50.9983 67.171 52.0713 67.3445 52.7731 66.7443L61.2019 59.5341" stroke="white" stroke-width="1.5" stroke-linecap="round" stroke-linejoin="round"/>
</svg>
