<svg width="68" height="68" viewBox="0 0 68 68" fill="none" xmlns="http://www.w3.org/2000/svg">
<g opacity="0.6">
<path d="M19.6765 48.998C10.2358 48.998 2.56445 56.6681 2.56445 66.1073C2.56445 67.1486 3.40429 67.9995 4.45703 67.9995H34.8958C35.9373 67.9995 36.7884 67.1598 36.7884 66.1073C36.7885 56.6681 29.1172 48.998 19.6765 48.998ZM6.47295 64.2148C7.39127 57.7541 12.9684 52.7713 19.6765 52.7713C26.3846 52.7713 31.9506 57.7541 32.88 64.2148H6.47295Z" fill="#777777"/>
<path d="M11.5686 37.5555C11.5686 42.2807 15.2082 46.1324 19.6766 46.1324C24.145 46.1324 27.7847 42.2918 27.7847 37.5555C27.7847 32.8192 24.145 28.9785 19.6766 28.9785C15.2082 28.9785 11.5686 32.8303 11.5686 37.5555ZM24.0106 37.5555C24.0106 40.2091 22.0732 42.3479 19.6766 42.3479C17.2801 42.3479 15.3427 40.1981 15.3427 37.5555C15.3427 34.9018 17.2801 32.763 19.6766 32.763C22.0732 32.763 24.0106 34.9018 24.0106 37.5555Z" fill="#777777"/>
<path d="M50.8882 20.0195C41.4474 20.0195 33.7761 27.6896 33.7761 37.1287C33.7761 38.17 34.616 39.021 35.6687 39.021H66.1075C67.1489 39.021 68 38.1813 68 37.1287C68.0002 27.6896 60.3289 20.0195 50.8882 20.0195ZM37.6957 35.2363C38.614 28.7756 44.1911 23.7928 50.8993 23.7928C57.6074 23.7928 63.1734 28.7756 64.1028 35.2363H37.6957Z" fill="#777777"/>
<path d="M50.8881 17.1428C55.3565 17.1428 58.9961 13.3022 58.9961 8.56586C58.9961 3.82957 55.3565 0 50.8881 0C46.4197 0 42.78 3.84065 42.78 8.57695C42.78 13.3132 46.4197 17.1428 50.8881 17.1428ZM50.8881 3.77345C53.2846 3.77345 55.222 5.92327 55.222 8.56586C55.222 11.2085 53.2846 13.3583 50.8881 13.3583C48.4916 13.3583 46.5541 11.2085 46.5541 8.56586C46.5541 5.92327 48.5026 3.77345 50.8881 3.77345Z" fill="#777777"/>
<path d="M3.14697 30.1089C3.14697 30.8368 3.56134 31.4863 4.22205 31.8109C5.06189 32.2252 5.87956 31.8557 6.21546 31.5869L15.1859 24.4096H30.8644C33.6306 24.4096 35.8927 22.1477 35.8927 19.3822V5.02745C35.8927 2.26189 33.6306 0 30.8644 0H5.02846C2.26226 0 0 2.26189 0 5.02745V19.3597C0 21.4648 1.29908 23.2786 3.14697 24.0289V30.1089ZM3.77407 5.02745C3.77407 4.33325 4.33396 3.77345 5.02829 3.77345H30.8531C31.5474 3.77345 32.1073 4.33325 32.1073 5.02745V19.3597C32.1073 20.0539 31.5474 20.6137 30.8531 20.6137H14.5251C14.0995 20.6137 13.6853 20.7592 13.3492 21.028L6.9323 26.1675V22.4948C6.9323 21.4535 6.09246 20.6026 5.03972 20.6026C4.3454 20.6026 3.78551 20.0428 3.78551 19.3486V5.01637H3.77425L3.77407 5.02745Z" fill="#777777"/>
<path d="M10.2249 13.8275H13.1925C14.234 13.8275 15.0851 12.9878 15.0851 11.9352C15.0851 10.8939 14.2453 10.043 13.1925 10.043H10.2249C9.18337 10.043 8.33228 10.8827 8.33228 11.9352C8.34336 12.9765 9.1832 13.8275 10.2249 13.8275Z" fill="#777777"/>
<path d="M22.6892 13.8275H25.6569C26.6984 13.8275 27.5495 12.9878 27.5495 11.9352C27.5495 10.8939 26.7096 10.043 25.6569 10.043H22.6892C21.6477 10.043 20.7966 10.8827 20.7966 11.9352C20.7966 12.9765 21.6477 13.8275 22.6892 13.8275Z" fill="#777777"/>
</g>
</svg>
