<svg width="70" height="69" viewBox="0 0 70 69" fill="none" xmlns="http://www.w3.org/2000/svg">
<path d="M57.2912 21.9003C57.2912 23.1384 58.2949 24.142 59.533 24.142C60.7713 24.142 61.7747 23.1384 61.7747 21.9003H57.2912ZM22.3062 64.2638C23.5443 64.2638 24.5479 63.2601 24.5479 62.022C24.5479 60.784 23.5443 59.7803 22.3062 59.7803V64.2638ZM61.7747 21.9003V14.3971H57.2912V21.9003H61.7747ZM60.2515 10.7072L51.1294 1.54094L47.9514 4.70366L57.0736 13.8699L60.2515 10.7072ZM47.4218 0H7.22539V4.48352H47.4218V0ZM0.500114 6.72525L0.5 57.5385H4.98351L4.98363 6.72528L0.500114 6.72525ZM7.22527 64.2638H22.3062V59.7803H7.22527V64.2638ZM0.5 57.5385C0.499994 61.2527 3.511 64.2638 7.22527 64.2638V59.7803C5.98719 59.7803 4.98351 58.7766 4.98351 57.5385H0.5ZM7.22539 0C3.51112 0 0.500123 3.01101 0.500114 6.72525L4.98363 6.72528C4.98363 5.4872 5.98731 4.48352 7.22539 4.48352V0ZM51.1294 1.54094C50.1475 0.554549 48.8132 0 47.4218 0V4.48352C47.6206 4.48352 47.811 4.56273 47.9514 4.70366L51.1294 1.54094ZM61.7747 14.3971C61.7747 13.0141 61.2271 11.6874 60.2515 10.7072L57.0736 13.8699C57.2132 14.01 57.2912 14.1995 57.2912 14.3971H61.7747Z" fill="#777777"/>
<path d="M14.6978 17.1875H46.3071" stroke="#71717A" stroke-width="1.25" stroke-linecap="round"/>
<path d="M14.6978 32.1309H30.3524" stroke="#71717A" stroke-width="1.25" stroke-linecap="round"/>
<path d="M14.6978 47.0762H21.4069" stroke="#71717A" stroke-width="1.25" stroke-linecap="round"/>
<path d="M52.0604 68.0002C61.1397 68.0002 68.5 60.64 68.5 51.5607C68.5 42.4813 61.1397 35.1211 52.0604 35.1211C42.9811 35.1211 35.6208 42.4813 35.6208 51.5607C35.6208 60.64 42.9811 68.0002 52.0604 68.0002Z" stroke="#71717A" stroke-width="1.5"/>
<path d="M46.0825 53.0542L49.3184 56.2901C49.9715 56.9432 51.0547 56.8535 51.5916 56.1021L58.0386 47.0762" stroke="#71717A" stroke-width="1.5" stroke-linecap="round" stroke-linejoin="round"/>
</svg>
