<svg width="60" height="60" viewBox="0 0 60 60" fill="none" xmlns="http://www.w3.org/2000/svg">
<path d="M50.7012 0C54.2514 0 57.1297 3.18111 57.1297 7.1052V27.8053C55.86 26.4613 54.418 25.3147 52.844 24.4097V7.1052C52.844 5.79718 51.8846 4.7368 50.7012 4.7368H6.42857C5.24512 4.7368 4.28572 5.79718 4.28572 7.1052V43.4352C4.28572 44.7432 5.24512 45.8036 6.42857 45.8036L14.2829 45.8017L14.2857 37.1049C14.2857 34.2054 16.306 31.8275 18.8756 31.597L19.2857 31.5787H28.6337C27.7866 33.0414 27.1023 34.6307 26.61 36.3155H19.2857C18.9476 36.3155 18.6643 36.5751 18.5903 36.924L18.5714 37.1049L18.5686 45.8017H25.9346C26.1663 47.4548 26.5769 49.0426 27.1432 50.5404H6.42857C2.87817 50.5404 0 47.3592 0 43.4352V7.1052C0 3.18111 2.87817 0 6.42857 0H50.7012Z" fill="#777777"/>
<path d="M28.5714 9.47461C33.3054 9.47461 37.1429 13.7161 37.1429 18.9483C37.1429 24.1803 33.3054 28.4219 28.5714 28.4219C23.8374 28.4219 20 24.1803 20 18.9483C20 13.7161 23.8374 9.47461 28.5714 9.47461ZM28.5714 14.2114C26.2046 14.2114 24.2857 16.3321 24.2857 18.9483C24.2857 21.5643 26.2046 23.6851 28.5714 23.6851C30.9383 23.6851 32.8571 21.5643 32.8571 18.9483C32.8571 16.3321 30.9383 14.2114 28.5714 14.2114Z" fill="#777777"/>
<path d="M60 42.6319C60 52.2243 52.9646 60.0002 44.2857 60.0002C35.6068 60.0002 28.5714 52.2243 28.5714 42.6319C28.5714 33.0396 35.6068 25.2637 44.2857 25.2637C52.9646 25.2637 60 33.0396 60 42.6319ZM45.8726 32.9076C45.3731 31.1367 43.1983 31.1367 42.6988 32.9076L41.1074 38.551H35.9574C34.3411 38.551 33.6691 40.934 34.9766 42.0285L39.1431 45.5163L37.5517 51.1594C37.0523 52.9304 38.8114 54.4032 40.1191 53.3087L44.2857 49.8211L48.4523 53.3087C49.76 54.4032 51.5191 52.9304 51.0197 51.1594L49.4283 45.5163L53.5948 42.0285C54.9023 40.934 54.2303 38.551 52.614 38.551H47.464L45.8726 32.9076Z" fill="#777777"/>
</svg>
