<svg width="90" height="89" viewBox="0 0 90 89" fill="none" xmlns="http://www.w3.org/2000/svg">
<path d="M62.7341 72.736C68.2045 70.8346 72.4346 67.0294 74.4779 62.1068C76.6495 56.8751 76.2313 50.9658 73.3006 45.4665C70.4478 40.1154 65.5315 35.7796 59.4563 33.2579C53.381 30.7361 46.8394 30.3159 41.0363 32.0743C35.0728 33.8814 30.5928 37.7576 28.4212 42.9892C26.2496 48.2208 26.6678 54.1301 29.5985 59.6295C32.4505 64.9805 37.3669 69.3162 43.4422 71.8379C44.2517 72.174 45.081 72.4763 45.9182 72.7405L46.8016 74.5093C49.8454 80.6018 54.9833 85.3929 61.2734 88.0041L63.3668 88.8731L65.2165 84.417L64.8578 83.5495C63.446 80.1196 62.7244 76.445 62.7341 72.736ZM50.8572 72.4833L49.0846 68.9342L48.1144 68.6642C47.1167 68.3862 46.1368 68.0477 45.1802 67.6507C34.7914 63.3385 29.1514 53.0549 32.6081 44.7271C36.0649 36.3994 47.3295 33.1326 57.7183 37.4448C68.1071 41.7571 73.7472 52.0407 70.2904 60.3685C68.5682 64.5176 64.8904 67.5318 59.9347 68.856L58.3449 69.2807L58.2476 71.0863C58.0528 74.7756 58.4833 78.4713 59.5209 82.0171C55.8107 79.6969 52.8128 76.3979 50.8572 72.4833Z" fill="#7C4FE0"/>
<path d="M16.0401 41.8456C19.0294 40.1784 21.7243 38.0312 24.0172 35.4899L25.2198 34.1523L24.3989 32.7277C21.9835 28.5369 21.5468 24.0764 23.1691 20.168C26.4291 12.3143 37.0638 9.23832 46.8757 13.3111C54.0939 16.3073 58.8864 22.3506 59.6179 28.463C60.146 28.6528 60.6718 28.8545 61.1942 29.0713C62.2433 29.5067 63.2616 29.9891 64.2493 30.5184C64.3305 27.2796 63.517 23.9546 61.8214 20.7736C59.0999 15.6671 54.4099 11.5301 48.6136 9.12416C42.8174 6.71821 36.5764 6.31785 31.0384 7.99595C25.34 9.7228 21.0584 13.4284 18.9822 18.4301C17.0379 23.1142 17.304 28.5157 19.6757 33.4803C17.2092 35.9376 14.2858 37.8885 11.0702 39.2232L10.2024 39.5818L8.38381 43.9631L10.4773 44.832C14.3487 46.4384 18.5409 47.1217 22.722 46.8278C22.9397 45.2311 23.3299 43.6627 23.8858 42.1502C21.2729 42.5095 18.6172 42.4064 16.0401 41.8456Z" fill="#7C4FE0"/>
</svg>
