<svg width="72" height="71" viewBox="0 0 72 71" fill="none" xmlns="http://www.w3.org/2000/svg">
<path d="M61.8921 9.37629C65.3811 10.0328 67.6215 13.6914 66.8958 17.5478L63.0676 37.8909C62.0684 36.3353 60.8633 34.9417 59.4838 33.7612L62.684 16.7552C62.9259 15.4698 62.1791 14.2502 61.0161 14.0314L17.5071 5.84395C16.3441 5.62509 15.2051 6.48975 14.9632 7.77521L8.24465 43.4786C8.00276 44.764 8.7495 45.9835 9.91255 46.2024L17.6317 47.653L19.2428 39.1068C19.7791 36.2573 22.2043 34.294 24.7722 34.5427L25.1786 34.6005L34.3653 36.3293C33.2623 37.6101 32.2959 39.0455 31.5005 40.6101L24.3026 39.2556C23.9703 39.1931 23.6439 39.3958 23.5066 39.7251L23.4546 39.8994L21.8435 48.4456L29.0824 49.8078C29.0044 51.4753 29.1143 53.1116 29.3938 54.6883L9.03656 50.8575C5.5474 50.2009 3.30718 46.5423 4.03285 42.686L10.7514 6.98265C11.4771 3.12624 14.894 0.532267 18.3831 1.18885L61.8921 9.37629Z" fill="#7C4FE0"/>
<path d="M38.3918 14.5949C43.0442 15.4704 46.031 20.3484 45.0634 25.4904C44.0959 30.6321 39.5402 34.0909 34.8879 33.2154C30.2355 32.3399 27.2487 27.4618 28.2163 22.3201C29.1839 17.1781 33.7395 13.7194 38.3918 14.5949ZM37.5159 19.25C35.1898 18.8123 32.9119 20.5416 32.4281 23.1127C31.9443 25.6835 33.4378 28.1226 35.7639 28.5603C38.0899 28.998 40.3679 27.2686 40.8516 24.6978C41.3355 22.1267 39.8419 19.6877 37.5159 19.25Z" fill="#7C4FE0"/>
<path d="M63.1464 52.9922C61.3725 62.4191 53.0204 68.7598 44.4912 67.1548C35.9621 65.5498 30.486 56.6069 32.26 47.18C34.0339 37.7531 42.386 31.4124 50.9152 33.0174C59.4443 34.6224 64.9204 43.5653 63.1464 52.9922ZM51.061 40.823C50.8977 38.9902 48.7604 38.588 47.9421 40.236L45.3344 45.4878L40.2733 44.5354C38.6849 44.2365 37.5838 46.4541 38.6662 47.7715L42.1159 51.9697L39.5083 57.2212C38.69 58.8692 40.1465 60.642 41.634 59.8082L46.3737 57.1513L49.8234 61.3492C50.9062 62.6667 52.9074 61.5446 52.744 59.7118L52.2237 53.8718L56.9634 51.2146C58.4507 50.3808 58.2309 47.9147 56.6425 47.6157L51.5814 46.6633L51.061 40.823Z" fill="#7C4FE0"/>
</svg>
