<svg width="68" height="68" viewBox="0 0 68 68" fill="none" xmlns="http://www.w3.org/2000/svg">
<path d="M61.2283 53.338C65.5518 49.4846 67.9999 44.3485 67.9999 39.0186C67.9999 33.3542 65.3482 28.0567 60.5332 24.1011C55.8469 20.2526 49.6439 18.1328 43.0661 18.1328C36.4883 18.1328 30.2854 20.2526 25.5998 24.1014C20.7847 28.0567 18.1331 33.3542 18.1331 39.0186C18.1331 44.683 20.7847 49.9805 25.5998 53.9361C30.2854 57.7849 36.4883 59.9045 43.0661 59.9045C43.9426 59.9045 44.8245 59.8658 45.699 59.7889L47.193 61.0839C52.3399 65.544 58.9221 67.9992 65.7326 67.9995H67.9992V63.1747L67.3354 62.511C64.7166 59.8845 62.6413 56.7673 61.2283 53.338ZM50.162 57.6578L47.1642 55.0595L46.1646 55.182C45.1366 55.3078 44.1018 55.3708 43.0661 55.3709C31.8179 55.3709 22.6663 48.0352 22.6663 39.0186C22.6663 30.0019 31.8179 22.6661 43.0661 22.6661C54.3143 22.6661 63.4659 30.0018 63.4659 39.0186C63.4659 43.5108 61.2248 47.7047 57.1553 50.8276L55.8499 51.8294L56.4522 53.5343C57.6866 57.0164 59.5011 60.2647 61.8188 63.1417C57.5026 62.4212 53.4689 60.5236 50.162 57.6578Z" fill="#777777"/>
<path d="M6.25948 42.7091C8.38123 40.0233 10.0471 37.007 11.1906 33.7808L11.7884 32.0844L10.4841 31.0834C6.64665 28.1387 4.53329 24.1865 4.53329 19.9547C4.53329 11.4513 13.1761 4.53333 23.7998 4.53333C31.6151 4.53333 38.3583 8.27758 41.3771 13.6425C41.9377 13.6153 42.5007 13.6 43.0662 13.6C44.2021 13.6 45.3276 13.6551 46.4427 13.7653C45.2761 10.7429 43.25 7.98377 40.4644 5.69585C35.9932 2.02286 30.0755 0 23.7998 0C17.524 0 11.6063 2.02286 7.13483 5.69585C2.53382 9.47538 0 14.5392 0 19.9547C0 25.0264 2.31651 29.9132 6.41035 33.5892C5.07436 36.8043 3.12224 39.7269 0.663985 42.1924L0 42.8563V47.6H2.26664C6.4581 47.5995 10.5919 46.6234 14.3409 44.749C13.9298 43.1908 13.6889 41.5927 13.6225 39.9826C11.3471 41.3162 8.85473 42.2391 6.25948 42.7091Z" fill="#777777"/>
</svg>
