<svg width="74" height="74" viewBox="0 0 74 74" fill="none" xmlns="http://www.w3.org/2000/svg">
<path d="M18.1111 3V14.3333M55.8889 3V14.3333M18.489 67.2222C20.2391 58.6006 27.8617 52.1111 37 52.1111C46.1384 52.1111 53.7609 58.6006 55.5111 67.2222M15.0889 71H58.9111C63.1426 71 65.2585 71 66.8747 70.1764C68.2962 69.4522 69.4522 68.2962 70.1764 66.8747C71 65.2585 71 63.1426 71 58.9111V22.6444C71 18.4129 71 16.2972 70.1764 14.681C69.4522 13.2593 68.2962 12.1034 66.8747 11.3791C65.2585 10.5556 63.1426 10.5556 58.9111 10.5556H15.0889C10.8574 10.5556 8.74162 10.5556 7.12541 11.3791C5.70372 12.1034 4.54787 13.2593 3.82352 14.681C3 16.2972 3 18.4129 3 22.6444V58.9111C3 63.1426 3 65.2585 3.82352 66.8747C4.54787 68.2962 5.70372 69.4522 7.12541 70.1764C8.74162 71 10.8574 71 15.0889 71ZM44.5556 33.2222C44.5556 37.3952 41.1729 40.7778 37 40.7778C32.8271 40.7778 29.4444 37.3952 29.4444 33.2222C29.4444 29.0494 32.8271 25.6667 37 25.6667C41.1729 25.6667 44.5556 29.0494 44.5556 33.2222Z" stroke="#777777" stroke-width="6" stroke-linecap="round" stroke-linejoin="round"/>
</svg>
