<svg width="51" height="72" viewBox="0 0 51 72" fill="none" xmlns="http://www.w3.org/2000/svg">
<path d="M46.5858 34.6799C47.5067 34.9972 48.2853 35.5231 48.9219 36.2576C49.5585 36.9921 49.9836 37.8644 50.1974 38.8746C50.4111 39.8848 50.3449 40.8922 49.9987 41.8967C48.1811 47.1704 46.6953 51.4814 45.5413 54.8298C45.3682 55.3321 44.9932 56.4203 44.4161 58.0945C43.8391 59.7687 43.3487 61.1917 42.9448 62.3637C41.7042 65.9632 39.4511 68.6284 36.1854 70.3593C32.9198 72.0902 29.5709 72.3642 26.1388 71.1814L12.829 66.5941C10.5689 65.8152 8.68528 64.487 7.17829 62.6097C5.6713 60.7323 4.73433 58.5598 4.36736 56.092L0.397202 29.2969C0.319176 28.7081 0.547137 28.3184 1.08109 28.1279L2.68293 27.5561C4.68016 26.6523 6.65444 26.6304 8.60577 27.4902C10.5571 28.35 11.8865 29.7916 12.594 31.8148L13.4126 33.9232L22.0635 9.23028C22.5539 7.80722 23.4889 6.72468 24.8685 5.98266C26.2481 5.24064 27.6494 5.11486 29.0724 5.60532C29.9933 5.92267 30.7647 6.46952 31.3869 7.24585C32.009 8.02219 32.406 8.90824 32.5779 9.90402C32.7498 10.8998 32.6627 11.8999 32.3165 12.9044L28.0322 25.3353C29.1838 24.983 30.3037 24.9944 31.3919 25.3694C33.4847 26.0907 34.7015 27.5871 35.0425 29.8586C36.3932 29.2003 37.7382 29.1019 39.0776 29.5635C40.1658 29.9386 41.0549 30.6196 41.7449 31.6067C42.4349 32.5937 42.7742 33.6472 42.7629 34.7671C43.9722 34.2473 45.2465 34.2183 46.5858 34.6799ZM43.3244 53.9253C44.9401 49.2376 46.4114 44.9684 47.7385 41.1177C48.0559 40.1969 48.0298 39.3217 47.6602 38.4919C47.2906 37.6621 46.6873 37.103 45.8502 36.8145C45.0131 36.526 44.1724 36.5874 43.3282 36.9989C42.484 37.4103 41.9032 38.0764 41.5859 38.9972L40.6771 41.6341C40.4463 42.3038 39.9751 42.516 39.2636 42.2708C38.5521 42.0255 38.3117 41.5681 38.5425 40.8984L40.2303 36.0014C40.5476 35.0806 40.5215 34.2053 40.1519 33.3755C39.7823 32.5458 39.1999 31.9938 38.4047 31.7198C37.6094 31.4457 36.8106 31.5216 36.0083 31.9474C35.2059 32.3733 34.6461 33.0466 34.3287 33.9675L32.5544 39.1156C32.2948 39.869 31.8092 40.1231 31.0977 39.8778C30.3861 39.6326 30.1602 39.1333 30.4198 38.3799L32.6702 31.8506C32.9875 30.9298 32.9405 30.0473 32.529 29.2031C32.1176 28.3589 31.4933 27.7925 30.6562 27.504C29.8191 27.2155 28.9994 27.2842 28.1971 27.71C27.3947 28.1359 26.8493 28.7674 26.5608 29.6045L24.0075 37.0128C23.7767 37.6825 23.3056 37.8947 22.594 37.6495C21.8825 37.4042 21.6422 36.9468 21.873 36.2771L24.3397 29.1199C24.3397 29.1199 24.3541 29.0781 24.3829 28.9944C24.3829 28.9944 24.3974 28.9525 24.4262 28.8688L30.1819 12.1688C30.4992 11.248 30.4803 10.3517 30.1252 9.48011C29.77 8.60848 29.1739 8.02841 28.3368 7.73991C27.4997 7.45141 26.6727 7.54102 25.856 8.00874C25.0392 8.47646 24.4866 9.12887 24.1981 9.96597L14.6342 37.7157C14.4611 38.2179 14.0945 38.4662 13.5346 38.4605C12.9746 38.4548 12.5849 38.2269 12.3655 37.7766L10.4856 32.6334C9.96872 31.1441 9.01316 30.1124 7.61895 29.5382C6.30845 28.9929 4.99227 29.0076 3.6704 29.5822L3.50156 29.6645L2.86947 29.8681L6.7226 55.7799C6.95383 57.8263 7.69159 59.6258 8.93587 61.1785C10.1801 62.7312 11.7231 63.8248 13.5647 64.4596L26.8745 69.0468C29.6369 69.9988 32.3696 69.7466 35.0724 68.2899C37.7753 66.8333 39.646 64.5983 40.6846 61.5847C41.1174 60.3291 41.6367 58.8223 42.2425 57.0644C42.8484 55.3065 43.209 54.2601 43.3244 53.9253ZM19.8508 7.90579C19.62 8.57546 19.1489 8.78769 18.4373 8.54246C17.7258 8.29723 17.4854 7.83978 17.7163 7.17011C18.6395 4.4914 20.3674 2.53488 22.9 1.30055C25.4326 0.066223 28.0173 -0.0965485 30.6541 0.812239C33.291 1.72103 35.2266 3.44172 36.4609 5.97432C37.6952 8.50691 37.8508 11.1126 36.9276 13.7913C36.6968 14.4609 36.2256 14.6732 35.5141 14.4279C34.8026 14.1827 34.5622 13.7253 34.793 13.0556C35.5143 10.9628 35.3949 8.93158 34.4348 6.96178C33.4748 4.99198 31.9484 3.64645 29.8557 2.92519C28.8512 2.57899 27.8164 2.45648 26.7513 2.55768C25.6863 2.65887 24.7035 2.9289 23.803 3.36778C22.9025 3.80665 22.1053 4.42158 21.4112 5.21255C20.7172 6.00353 20.197 6.90128 19.8508 7.90579Z" fill="#7C4FE0"/>
</svg>
