<svg width="52" height="69" viewBox="0 0 52 69" fill="none" xmlns="http://www.w3.org/2000/svg">
<path d="M45.8796 27.3281C46.8536 27.3281 47.7612 27.5716 48.6023 28.0586C49.4434 28.5456 50.1296 29.2318 50.6609 30.1172C51.1921 31.0026 51.4578 31.9766 51.4578 33.0391C51.4578 38.6172 51.4578 43.1771 51.4578 46.7188C51.4578 47.25 51.4578 48.401 51.4578 50.1719C51.4578 51.9427 51.4578 53.4479 51.4578 54.6875C51.4578 58.4948 50.196 61.7487 47.6726 64.4492C45.1492 67.1497 42.0723 68.5 38.4421 68.5H24.364C21.9734 68.5 19.7598 67.8581 17.7234 66.5742C15.6869 65.2904 14.0932 63.5417 12.9421 61.3281L0.457764 37.2891C0.192139 36.7578 0.28068 36.3151 0.723389 35.9609L2.05151 34.8984C3.64526 33.3932 5.50464 32.7292 7.62964 32.9062C9.75464 33.0833 11.4812 34.013 12.8093 35.6953L14.2703 37.4219L14.4031 11.2578C14.4031 9.75261 14.9343 8.42448 15.9968 7.27344C17.0593 6.12239 18.3432 5.54688 19.8484 5.54688C20.8223 5.54688 21.7299 5.8125 22.571 6.34375C23.4122 6.875 24.0763 7.58333 24.5632 8.46875C25.0502 9.35417 25.2937 10.3281 25.2937 11.3906V24.5391C26.2677 23.8307 27.3302 23.4766 28.4812 23.4766C30.6947 23.4766 32.3328 24.4948 33.3953 26.5312C34.4578 25.4688 35.6973 24.9375 37.114 24.9375C38.2651 24.9375 39.3276 25.2917 40.3015 26C41.2755 26.7083 41.9395 27.5938 42.2937 28.6562C43.2677 27.7708 44.463 27.3281 45.8796 27.3281ZM49.0671 46.5859C49.0671 41.6276 49.0671 37.112 49.0671 33.0391C49.0671 32.0651 48.7572 31.2461 48.1375 30.582C47.5177 29.918 46.7651 29.5859 45.8796 29.5859C44.9942 29.5859 44.2195 29.918 43.5554 30.582C42.8914 31.2461 42.5593 32.0651 42.5593 33.0391V35.8281C42.5593 36.5365 42.183 36.8906 41.4304 36.8906C40.6778 36.8906 40.3015 36.5365 40.3015 35.8281V30.6484C40.3015 29.6745 39.9916 28.8555 39.3718 28.1914C38.752 27.5273 38.0216 27.1953 37.1804 27.1953C36.3393 27.1953 35.6088 27.5273 34.989 28.1914C34.3692 28.8555 34.0593 29.6745 34.0593 30.6484V36.0938C34.0593 36.8906 33.683 37.2891 32.9304 37.2891C32.1778 37.2891 31.8015 36.8906 31.8015 36.0938V29.1875C31.8015 28.2135 31.4695 27.3945 30.8054 26.7305C30.1414 26.0664 29.3666 25.7344 28.4812 25.7344C27.5958 25.7344 26.8432 26.0664 26.2234 26.7305C25.6036 27.3945 25.2937 28.1693 25.2937 29.0547V36.8906C25.2937 37.599 24.9174 37.9531 24.1648 37.9531C23.4122 37.9531 23.0359 37.599 23.0359 36.8906V29.3203C23.0359 29.3203 23.0359 29.276 23.0359 29.1875C23.0359 29.1875 23.0359 29.1432 23.0359 29.0547V11.3906C23.0359 10.4167 22.726 9.57552 22.1062 8.86719C21.4864 8.15886 20.7338 7.80469 19.8484 7.80469C18.963 7.80469 18.2104 8.15886 17.5906 8.86719C16.9708 9.57552 16.6609 10.3724 16.6609 11.2578V40.6094C16.6609 41.1406 16.3953 41.4948 15.864 41.6719C15.3328 41.849 14.8901 41.7604 14.5359 41.4062L11.0828 37.1562C10.1088 35.9167 8.86922 35.2526 7.36401 35.1641C5.94735 35.0755 4.70776 35.5182 3.64526 36.4922L3.51245 36.625L2.9812 37.0234L15.0671 60.2656C15.9526 62.125 17.2364 63.5859 18.9187 64.6484C20.601 65.7109 22.4161 66.2422 24.364 66.2422H38.4421C41.364 66.2422 43.8653 65.1133 45.946 62.8555C48.0268 60.5977 49.0671 57.875 49.0671 54.6875C49.0671 53.3594 49.0671 51.7656 49.0671 49.9062C49.0671 48.0469 49.0671 46.9401 49.0671 46.5859ZM11.8796 10.7266C11.8796 11.4349 11.5033 11.7891 10.7507 11.7891C9.99813 11.7891 9.62183 11.4349 9.62183 10.7266C9.62183 7.89323 10.6179 5.48047 12.6101 3.48828C14.6023 1.49609 16.9929 0.5 19.782 0.5C22.571 0.5 24.9617 1.49609 26.9539 3.48828C28.946 5.48047 29.9421 7.89323 29.9421 10.7266C29.9421 11.4349 29.5658 11.7891 28.8132 11.7891C28.0606 11.7891 27.6843 11.4349 27.6843 10.7266C27.6843 8.51302 26.9096 6.63151 25.3601 5.08203C23.8106 3.53255 21.9291 2.75781 19.7156 2.75781C18.6531 2.75781 17.6348 2.97916 16.6609 3.42188C15.6869 3.86459 14.8458 4.4401 14.1375 5.14844C13.4291 5.85677 12.8757 6.69792 12.4773 7.67188C12.0789 8.64583 11.8796 9.66406 11.8796 10.7266Z" fill="#777777"/>
</svg>
