<svg width="84" height="83" viewBox="0 0 84 83" fill="none" xmlns="http://www.w3.org/2000/svg">
<path d="M32.2373 3.39682L29.6897 14.4401M69.0483 11.8889L66.5006 22.9322M18.169 66.0604C21.8124 58.0528 30.6987 53.4429 39.6031 55.4971C48.5077 57.5513 54.4762 65.5881 54.2436 74.3826M14.0067 68.9772L56.7074 78.8279C60.8306 79.7791 62.8924 80.2548 64.6523 79.8156C66.2003 79.4295 67.5866 78.5629 68.6118 77.3405C69.7775 75.9509 70.2532 73.8891 71.2044 69.7659L79.3568 34.4274C80.308 30.3042 80.7836 28.2426 80.3444 26.4826C79.9583 24.9345 79.0917 23.5484 77.8693 22.523C76.4797 21.3573 74.4179 20.8816 70.2947 19.9304L27.594 10.0796C23.4708 9.12845 21.4092 8.65285 19.6492 9.09198C18.1011 9.47821 16.715 10.3447 15.6896 11.5671C14.5239 12.9569 14.0483 15.0185 13.0971 19.1417L4.94469 54.4802C3.99349 58.6034 3.51785 60.6652 3.957 62.4251C4.34326 63.9731 5.20967 65.3593 6.43218 66.3846C7.8219 67.5503 9.8835 68.0259 14.0067 68.9772ZM51.2113 38.79C50.2733 42.8562 46.2169 45.3918 42.1507 44.4538C38.0846 43.5158 35.5489 39.4593 36.4869 35.3932C37.425 31.3272 41.4814 28.7914 45.5475 29.7294C49.6137 30.6675 52.1493 34.724 51.2113 38.79Z" stroke="#7C4FE0" stroke-width="6" stroke-linecap="round" stroke-linejoin="round"/>
</svg>
